<svg data-v-423bf9ae="" xmlns="http://www.w3.org/2000/svg" viewBox="0 0 469 90" class="iconLeft"><!----><!----><!----><g data-v-423bf9ae="" id="9d6530ef-b325-4d4a-9ed9-4b62fd0360de" fill="#371213" transform="matrix(5.576208059824095,0,0,5.576208059824095,128.4154330210267,-1.840149664822519)"><path d="M6.55 11.07L7.36 13.58L10.11 13.58L6.62 3.92L3.54 3.92L0.06 13.58L2.73 13.58L3.54 11.07ZM5.05 6.15L5.95 9.11L4.16 9.11ZM13.12 3.29L10.60 3.29L10.60 10.93C10.60 11.49 10.60 11.87 10.63 12.26C10.68 13.26 11.34 13.72 12.50 13.72C13.06 13.72 13.51 13.69 13.97 13.65L13.97 11.94C13.31 11.97 13.19 11.87 13.15 11.58C13.12 11.40 13.12 11.24 13.12 10.89ZM17.77 5.54C17.84 4.89 18.49 4.62 19.40 4.77L19.40 3.14C19.15 3.07 18.86 3.02 18.56 3.02C16.25 3.02 15.36 3.89 15.25 5.29C15.23 5.54 15.23 5.88 15.23 6.10L15.23 6.16L14.43 6.16L14.43 7.73L15.23 7.73L15.23 13.58L17.75 13.58L17.75 7.73L19.28 7.73L19.28 6.16L17.75 6.16L17.75 6.10C17.75 5.92 17.75 5.74 17.77 5.54ZM21.48 3.07C20.69 3.07 20.17 3.54 20.17 4.30C20.17 5.05 20.69 5.53 21.48 5.53C22.26 5.53 22.78 5.05 22.78 4.30C22.78 3.54 22.26 3.07 21.48 3.07ZM22.74 13.58L22.74 6.10L20.22 6.10L20.22 13.58ZM33.52 3.92L31.00 3.92L31.00 7.87L27.13 7.87L27.13 3.92L24.61 3.92L24.61 13.58L27.13 13.58L27.13 9.83L31.00 9.83L31.00 13.58L33.52 13.58ZM38.63 5.91C36.18 5.91 34.61 7.43 34.61 9.84C34.61 12.24 36.18 13.78 38.63 13.78C41.08 13.78 42.64 12.24 42.64 9.84C42.64 7.43 41.08 5.91 38.63 5.91ZM38.63 12.07C37.73 12.07 37.18 11.33 37.18 9.84C37.18 8.34 37.73 7.62 38.63 7.62C39.52 7.62 40.07 8.34 40.07 9.84C40.07 11.33 39.52 12.07 38.63 12.07ZM46.76 7.73L48.41 7.73L48.41 6.16L46.76 6.16L46.76 4.23L44.24 4.23L44.24 6.16L43.05 6.16L43.05 7.73L44.24 7.73L44.24 10.85C44.24 11.27 44.24 11.62 44.27 12.05C44.35 13.20 44.91 13.78 46.77 13.78C47.31 13.78 47.77 13.73 48.26 13.65L48.26 12.08C47.07 12.14 46.83 11.97 46.77 11.21C46.76 11.02 46.76 10.74 46.76 10.49ZM56.57 9.74C56.57 7.81 55.31 5.91 52.82 5.91C50.33 5.91 48.83 7.69 48.83 9.87C48.83 12.50 50.54 13.78 52.68 13.78C54.60 13.78 56.00 12.82 56.43 11.13L53.96 11.13C53.86 11.70 53.42 12.07 52.71 12.07C52.00 12.07 51.45 11.72 51.32 10.47L56.53 10.47C56.56 10.22 56.57 9.97 56.57 9.74ZM52.70 7.62C53.37 7.62 53.80 8.05 53.94 8.93L51.41 8.93C51.58 8.01 52.04 7.62 52.70 7.62ZM60.13 3.29L57.61 3.29L57.61 10.93C57.61 11.49 57.61 11.87 57.64 12.26C57.69 13.26 58.35 13.72 59.51 13.72C60.07 13.72 60.52 13.69 60.98 13.65L60.98 11.94C60.33 11.97 60.20 11.87 60.16 11.58C60.13 11.40 60.13 11.24 60.13 10.89Z"></path></g><defs data-v-423bf9ae=""><linearGradient data-v-423bf9ae="" gradientTransform="rotate(25)" id="38bc178a-61da-42dd-8927-038d0cdbc2c0" x1="0%" y1="0%" x2="100%" y2="0%"><stop data-v-423bf9ae="" offset="0%" style="stop-color: rgb(233, 0, 127); stop-opacity: 1;"></stop><stop data-v-423bf9ae="" offset="100%" style="stop-color: rgb(254, 161, 52); stop-opacity: 1;"></stop></linearGradient></defs><g data-v-423bf9ae="" id="3169a668-bd27-44cc-bed7-9fd012d6a9cc" transform="matrix(1.875,0,0,1.875,-21.875,-37.5)" stroke="none" fill="url(#38bc178a-61da-42dd-8927-038d0cdbc2c0)"><path d="M68 68H14V24h54v44zm-52-2h50V26H16v40z"></path><path d="M47 68H35V52h12v16zm-10-2h8V54h-8v12z"></path><path d="M15 62h21v2H15zM46 62h21v2H46zM42 59h2v2h-2zM70 26H12v-6h58v6zm-56-2h54v-2H14v2zM30.8 49.1l-4-2.1-4 2.1.8-4.4-3.2-3.1 4.4-.6 2-4 2 4 4.4.6-3.2 3.1.8 4.4zm-4-4.3l1.3.7-.2-1.5 1.1-1-1.5-.2-.7-1.3-.7 1.3-1.4.2 1.1 1-.3 1.5 1.3-.7zM45 49.1L41 47l-4 2.1.8-4.4-3.2-3.1L39 41l2-4 2 4 4.4.6-3.2 3.1.8 4.4zm-4-4.3l1.3.7-.2-1.5 1.1-1-1.5-.2-.7-1.4-.7 1.3-1.4.3 1.1 1-.3 1.5 1.3-.7z"></path><path d="M37.8 40.1l-4-2.1-4 2.1.8-4.4-3.2-3.1 4.4-.6 2-4 2 4 4.4.6-3.2 3.1.8 4.4zm-4-4.3l1.3.7-.2-1.5 1.1-1-1.5-.2-.7-1.3-.7 1.3-1.4.2 1.1 1-.3 1.5 1.3-.7zM52 40.1L48 38l-4 2.1.8-4.4-3.2-3.1L46 32l2-4 2 4 4.4.6-3.2 3.1.8 4.4zm-4-4.3l1.3.7-.2-1.5 1.1-1-1.5-.2-.7-1.4-.7 1.3-1.4.3 1.1 1-.3 1.5 1.3-.7z"></path><path d="M59.8 49.1l-4-2.1-4 2.1.8-4.4-3.2-3.1 4.4-.6 2-4 2 4 4.4.6-3.2 3.1.8 4.4zm-4-4.3l1.3.7-.2-1.5 1.1-1-1.5-.2-.7-1.3-.7 1.3-1.4.2 1.1 1-.3 1.5 1.3-.7z"></path></g><!----></svg>